
        <svg xmlns="http://www.w3.org/2000/svg" xmlns:xlink="http://www.w3.org/1999/xlink" version="1.1" width="3160.445987598101" 
        height="368.7941337844304" viewBox="0 0 3160.445987598101 368.7941337844304">
			
			<g transform="scale(8.022299379905059) translate(10, 10)">
				<defs id="SvgjsDefs5721"></defs><g id="SvgjsG5722" featureKey="nameLeftFeature-0" transform="matrix(0.9315323251352566,0,0,0.9315323251352566,8.136935349729487,-11.401953669687806)" fill="#2203e3"><path d="M14.44 22.44 c1.64 -2 2.6 -4.56 3.96 -7.88 c0.64 -1.56 1.6 -2.2 3.2 -2.2 c3.08 0 3.2 2.36 3.84 6.2 c0.76 4.52 1.44 12.36 1.44 16.92 c0 2.8 -0.2 4.64 -2.48 4.64 c-2.24 0 -2.56 -1.52 -2.56 -3.4 l0 -6.32 c0 -3.48 -0.4 -7.08 -0.96 -10.76 l-0.08 0 c-0.64 2.04 -3.56 8.72 -6.36 8.72 s-5.72 -6.68 -6.36 -8.72 l-0.08 0 c-0.56 3.68 -0.96 7.28 -0.96 10.76 l0 6.32 c0 1.88 -0.32 3.4 -2.56 3.4 c-2.28 0 -2.48 -1.84 -2.48 -4.64 c0 -4.56 0.68 -12.4 1.44 -16.92 c0.64 -3.84 0.76 -6.2 3.84 -6.2 c1.6 0 2.56 0.64 3.2 2.2 c1.36 3.32 2.32 5.88 3.96 7.88 z M38.793 28.32 l-1.04 0 c-1.08 2.92 -1.68 6.76 -1.96 9.44 c-0.16 1.48 -1 2.36 -2.44 2.36 c-2.16 0 -2.6 -1.28 -2.6 -3.2 c0 -1.24 0.68 -8.44 5.92 -18.32 c2.28 -4.32 3.56 -6.36 6.36 -6.36 c2.32 0 3.68 2.04 5.96 6.36 c5.24 9.88 6.32 17.08 6.32 18.32 c0 2.08 -1 3.2 -2.4 3.2 c-2 0 -2.48 -1.16 -2.88 -3.32 c-1.04 -5.76 -6.76 -8.48 -11.24 -8.48 z M38.953 24.32 l0.52 0 c1.96 0 5.4 0.56 8.04 2.72 l0.08 -0.08 c-1.2 -3.44 -2.72 -6.8 -4.68 -9.92 c-1.6 2.4 -2.92 4.8 -3.96 7.28 z M64.786 20.88 l9.28 0 l0 -5.8 c0 -1.52 0.8 -2.72 2.52 -2.72 s2.52 1.2 2.52 2.72 l0 22.32 c0 1.52 -0.8 2.72 -2.52 2.72 s-2.52 -1.2 -2.52 -2.72 l0 -12.2 l-9.28 0 l0 12.2 c0 1.52 -0.8 2.72 -2.52 2.72 s-2.52 -1.2 -2.52 -2.72 l0 -22.32 c0 -1.52 0.8 -2.72 2.52 -2.72 s2.52 1.2 2.52 2.72 l0 5.8 z M90.53899999999999 17.04 l0 3.44 l9.6 0 c1.36 0 2.44 0.72 2.44 2.28 s-1.08 2.28 -2.44 2.28 l-9.6 0 l0 10.4 l10 0 c1.36 0 2.44 0.72 2.44 2.28 s-1.08 2.28 -2.44 2.28 l-11.8 0 c-2.64 0 -3.48 -1.36 -3.48 -3.44 l0 -21.36 c0 -1.52 0.84 -2.72 2.2 -2.72 l13.08 0 c1.36 0 2.44 0.72 2.44 2.28 s-1.08 2.28 -2.44 2.28 l-10 0 z M127.452 15.120000000000001 l0 22.24 c0 1.56 -0.8 2.76 -2.52 2.76 s-2.52 -1.2 -2.52 -2.76 l0 -12.68 c-3.28 -0.36 -6.64 -2.64 -9.28 -5.72 l0 18.4 c0 1.56 -0.8 2.76 -2.52 2.76 s-2.52 -1.2 -2.52 -2.76 l0 -22.24 c0.08 -1.56 1.04 -2.76 3.24 -2.76 c3.92 0 4.36 5.88 11.08 7.76 l0 -5 c0 -1.56 0.8 -2.76 2.52 -2.76 s2.52 1.2 2.52 2.76 z M133.48499999999999 37.04 l0 -21.44 c0 -2 0.96 -3.12 3.48 -3.12 c14.92 0 19.12 9.92 19.12 16.04 c0 6.04 -3.88 11.48 -10.68 11.48 l-8.36 0 c-2.6 0 -3.56 -0.64 -3.56 -2.96 z M138.525 17.28 l0 17.92 l3.88 0 c5.96 0 8 -2 8 -6.32 c0 -6.48 -5.32 -11.6 -11.88 -11.6 z M165.918 25.16 l0 12.28 c0 1.48 -0.8 2.68 -2.52 2.68 s-2.52 -1.2 -2.52 -2.68 l0 -22.28 c0 -1.48 0.8 -2.68 2.52 -2.68 l8.56 0 c6.08 0 8.4 1.76 8.4 5.68 c0 2.72 -1.52 4.88 -3.64 6.28 c3.44 3.12 5.28 8.24 5.28 12.08 c0 1.84 -0.36 3.6 -2.36 3.6 c-2.2 0 -2.64 -1.48 -2.68 -3.36 c-0.12 -6.04 -3.4 -11.6 -11.04 -11.6 z M165.918 17.04 l0 3.8 c2.2 0 3.24 0.24 4.24 0.44 l2.44 0.64 c1.08 0 2.72 -1.8 2.72 -3 c0 -1.28 -1 -1.88 -2.72 -1.88 l-6.68 0 z M192.711 28.32 l-1.04 0 c-1.08 2.92 -1.68 6.76 -1.96 9.44 c-0.16 1.48 -1 2.36 -2.44 2.36 c-2.16 0 -2.6 -1.28 -2.6 -3.2 c0 -1.24 0.68 -8.44 5.92 -18.32 c2.28 -4.32 3.56 -6.36 6.36 -6.36 c2.32 0 3.68 2.04 5.96 6.36 c5.24 9.88 6.32 17.08 6.32 18.32 c0 2.08 -1 3.2 -2.4 3.2 c-2 0 -2.48 -1.16 -2.88 -3.32 c-1.04 -5.76 -6.76 -8.48 -11.24 -8.48 z M192.871 24.32 l0.52 0 c1.96 0 5.4 0.56 8.04 2.72 l0.08 -0.08 c-1.2 -3.44 -2.72 -6.8 -4.68 -9.92 c-1.6 2.4 -2.92 4.8 -3.96 7.28 z"></path></g><g id="SvgjsG5723" featureKey="inlineSymbolFeature-0" transform="matrix(0.3071122752057191,0,0,0.3071122752057191,212.33878723575012,-1.740627605728887)" fill="#2203e3"><g xmlns="http://www.w3.org/2000/svg"><circle fill="none" cx="49.651" cy="72.829" r="1.847"></circle><path fill="none" d="M6.159,65.021h86.985V15.996H6.159V65.021z M56.586,46.886l11.51-4.933v-0.062l-11.51-4.932V33.67   l14.891,6.825v2.854l-14.891,6.825V46.886z M51.652,28.924h3.133l-6.639,22.49h-3.132h-0.001L51.652,28.924z M27.825,43.256v-2.668   l14.89-6.918v3.289l-11.26,4.932v0.062l11.26,4.933v3.288L27.825,43.256L27.825,43.256z"></path><path d="M94.318,12.18h-43.88h-1.495H5.063c-1.563,0-2.91,1.188-2.91,2.752v54.092v0.188v5.013v0.313   c0,1.563,1.347,2.877,2.91,2.877h35.146c-0.041,0.896-0.321,4.753-2.155,6.623c-1.445,1.474-3.453,2.854-2.669,3.563   c0.19,0.436,1.091,0.688,3.14,0.688c4.521,0,9.416,0,11.208,0c0.453,0,0.707,0,0.707,0c1.791,0,6.688,0,11.207,0   c2.334,0,3.15-0.382,3.158-0.953h-0.08v-0.188h-0.082c-0.104-0.771-1.662-1.907-2.84-3.105c-1.834-1.87-2.113-5.727-2.154-6.623   h34.674c1.564,0,2.83-1.313,2.83-2.877v-0.314v-5.012v-0.189V14.934C97.15,13.368,95.883,12.18,94.318,12.18z M49.651,74.676   c-1.021,0-1.847-0.824-1.847-1.846s0.826-1.848,1.847-1.848c1.02,0,1.847,0.826,1.847,1.848   C51.499,73.852,50.671,74.676,49.651,74.676z M93.145,65.021H6.159V15.996h86.985V65.021z"></path><polygon points="42.715,46.886 31.455,41.953 31.455,41.891 42.715,36.959 42.715,33.67 27.825,40.588 27.825,43.256    27.825,43.257 42.715,50.174  "></polygon><polygon points="48.146,51.414 54.785,28.924 51.652,28.924 45.013,51.414 45.014,51.414  "></polygon><polygon points="71.477,40.495 56.586,33.67 56.586,36.959 68.096,41.891 68.096,41.953 56.586,46.886 56.586,50.174    71.477,43.349  "></polygon></g></g><g id="SvgjsG5724" featureKey="nameRightFeature-0" transform="matrix(0.9275400798208582,0,0,0.9275400798208582,237.3513593141687,-11.353088595567925)" fill="#2203e3"><path d="M15.793000000000001 37.4 l0 -22.76 c0 -1.28 0.8 -2.16 2.52 -2.16 l10.6 0 c4.16 0 6.32 2.32 6.32 5.68 c0 5.2 -4.4 8.24 -14.4 10.96 l0 8.28 c0 1.52 -0.8 2.72 -2.52 2.72 s-2.52 -1.2 -2.52 -2.72 z M20.833000000000002 16.8 l0 7.52 c2.64 -0.56 9.36 -3.36 9.36 -5.8 c0 -1.08 -0.56 -1.72 -3.52 -1.72 l-5.84 0 z M38.266000000000005 27.560000000000002 l1.16 -12.4 c0.12 -1.36 0.76 -2.8 2.4 -2.8 c1.76 0 2.4 1.36 2.4 2.32 c0 5.28 -1.24 10.48 -1.24 15.76 c0 3.12 2.24 5.24 5.32 5.24 s5.32 -2.12 5.32 -5.24 c0 -5.28 -1.24 -10.48 -1.24 -15.76 c0 -0.96 0.64 -2.32 2.4 -2.32 c1.64 0 2.28 1.44 2.4 2.8 l1.16 12.4 c0.08 1.04 0.08 2.24 0.08 3.36 c0 5.56 -4.4 9.32 -10.12 9.32 s-10.12 -3.76 -10.12 -9.32 c0 -1.12 0 -2.32 0.08 -3.36 z M83.259 15.120000000000001 l0 22.24 c0 1.56 -0.8 2.76 -2.52 2.76 s-2.52 -1.2 -2.52 -2.76 l0 -12.68 c-3.28 -0.36 -6.64 -2.64 -9.28 -5.72 l0 18.4 c0 1.56 -0.8 2.76 -2.52 2.76 s-2.52 -1.2 -2.52 -2.76 l0 -22.24 c0.08 -1.56 1.04 -2.76 3.24 -2.76 c3.92 0 4.36 5.88 11.08 7.76 l0 -5 c0 -1.56 0.8 -2.76 2.52 -2.76 s2.52 1.2 2.52 2.76 z M94.73200000000001 15.079999999999998 l0 22.32 c0 1.52 -0.8 2.72 -2.52 2.72 s-2.52 -1.2 -2.52 -2.72 l0 -22.32 c0 -1.52 0.8 -2.72 2.52 -2.72 s2.52 1.2 2.52 2.72 z M112.44500000000002 27.119999999999997 l0 10.04 c0 1.68 -0.88 2.96 -2.72 2.96 s-2.72 -1.28 -2.72 -2.96 l0 -10.04 c-3.52 -2.76 -7.72 -8.64 -7.72 -12.4 c0 -1.4 1.16 -2.36 2.36 -2.36 c1.04 0 2.36 0.48 2.92 2.64 c0.72 2.72 2.76 6.52 5.16 8.28 c2.4 -1.76 4.44 -5.56 5.16 -8.28 c0.56 -2.16 1.88 -2.64 2.92 -2.64 c1.2 0 2.36 0.96 2.36 2.36 c0 3.76 -4.2 9.64 -7.72 12.4 z M130.75800000000004 28.32 l-1.04 0 c-1.08 2.92 -1.68 6.76 -1.96 9.44 c-0.16 1.48 -1 2.36 -2.44 2.36 c-2.16 0 -2.6 -1.28 -2.6 -3.2 c0 -1.24 0.68 -8.44 5.92 -18.32 c2.28 -4.32 3.56 -6.36 6.36 -6.36 c2.32 0 3.68 2.04 5.96 6.36 c5.24 9.88 6.32 17.08 6.32 18.32 c0 2.08 -1 3.2 -2.4 3.2 c-2 0 -2.48 -1.16 -2.88 -3.32 c-1.04 -5.76 -6.76 -8.48 -11.24 -8.48 z M130.91800000000003 24.32 l0.52 0 c1.96 0 5.4 0.56 8.04 2.72 l0.08 -0.08 c-1.2 -3.44 -2.72 -6.8 -4.68 -9.92 c-1.6 2.4 -2.92 4.8 -3.96 7.28 z"></path></g>
			</g>
		</svg>
	